<svg xmlns="http://www.w3.org/2000/svg" xmlns:xlink="http://www.w3.org/1999/xlink" id="Layer_1" x="0" y="0" version="1.1" viewBox="0 0 100 100" style="enable-background:new 0 0 100 100" xml:space="preserve"><style type="text/css">.st0{fill:#f58536}.st1{fill:#9d5025}</style><g id="Layer_1-2"><polygon points="22.4 79.2 12.8 81.2 12.8 18.6 22.4 20.8" class="st0"/><polygon points="34.6 82.8 22.4 86.2 22.4 13.8 34.6 17.2" class="st0"/><polygon points="50 86.6 34.6 92.2 34.6 7.8 50 13.4" class="st0"/><polygon points="91.4 79.2 50 100 50 0 91.4 20.8" class="st0"/><polygon points="41.8 4.2 50 0 50 100 41.8 95.8" class="st1"/><polygon points="28.2 11 34.6 7.8 34.6 92.2 28.2 89" class="st1"/><polygon points="17.4 16.4 22.4 13.8 22.4 86.2 17.4 83.6" class="st1"/><polygon points="12.8 18.6 8.6 20.8 8.6 79.2 12.8 81.4" class="st1"/></g></svg>