<svg xmlns="http://www.w3.org/2000/svg" xmlns:xlink="http://www.w3.org/1999/xlink" id="Layer_1" x="0" y="0" version="1.1" viewBox="0 0 101 101" style="enable-background:new 0 0 101 101" xml:space="preserve"><g><polygon points="93.829 32.955 93.829 62.14 87.164 64.472 87.164 30.633 67.165 23.651 67.165 71.454 60.497 73.776 60.497 21.318 50.5 17.829 40.5 21.318 40.5 73.776 33.836 71.454 33.836 23.651 13.836 30.633 13.836 64.472 7.171 62.14 7.171 32.955 .5 35.288 .5 66.879 20.504 73.86 20.504 35.364 27.171 33.038 27.171 76.186 47.168 83.171 47.168 26.057 50.5 24.891 53.832 26.057 53.832 83.171 73.836 76.186 73.836 33.038 80.5 35.364 80.5 73.86 100.5 66.879 100.5 35.288"/></g></svg>