<svg xmlns="http://www.w3.org/2000/svg" xmlns:xlink="http://www.w3.org/1999/xlink" id="Layer_1" x="0" y="0" version="1.1" viewBox="0 0 101 101" style="enable-background:new 0 0 101 101" xml:space="preserve"><style type="text/css">.st0{fill:red}</style><g><polygon points="93.8 33 93.8 62.1 87.2 64.5 87.2 30.6 67.2 23.7 67.2 71.5 60.5 73.8 60.5 21.3 50.5 17.8 40.5 21.3 40.5 73.8 33.8 71.5 33.8 23.7 13.8 30.6 13.8 64.5 7.2 62.1 7.2 33 .5 35.3 .5 66.9 20.5 73.9 20.5 35.4 27.2 33 27.2 76.2 47.2 83.2 47.2 26.1 50.5 24.9 53.8 26.1 53.8 83.2 73.8 76.2 73.8 33 80.5 35.4 80.5 73.9 100.5 66.9 100.5 35.3" class="st0"/></g></svg>