<svg xmlns="http://www.w3.org/2000/svg" xmlns:xlink="http://www.w3.org/1999/xlink" width="32" height="31" version="1.1" viewBox="0 0 32 31"><title>Compute</title><desc>Created with Sketch.</desc><g id="Symbols" fill="none" fill-rule="evenodd" stroke="none" stroke-linecap="round" stroke-linejoin="round" stroke-width="1"><g id="Products" stroke="#5596E6" stroke-width=".85" transform="translate(-352.000000, -41.000000)"><g id="ICONS" transform="translate(353.000000, 40.000000)"><g id="Row-1"><g id="Compute"><g id="Group-5" transform="translate(9.000000, 10.849900)"><polyline id="Stroke-1" points="11.882 .12 21.429 .12 21.429 11.03 13.246 11.03"/><polyline id="Stroke-3" points="10.518 11.03 .971 11.03 .971 20.575 11.882 20.575 11.882 12.394"/></g><path id="Stroke-6" d="M10.936,11.9346 L19.918,20.9156"/><g id="Group-15" transform="translate(0.000000, 0.849900)"><polyline id="Stroke-7" points="11.335 10.12 20.882 10.12 20.882 .576 9.971 .576 9.971 8.543"/><polyline id="Stroke-9" points="9.972 21.03 .425 21.03 .425 10.121 8.608 10.121"/><path id="Stroke-11" d="M22.2458,21.0296 C22.2458,21.7826 21.6348,22.3936 20.8818,22.3936 C20.1288,22.3936 19.5178,21.7826 19.5178,21.0296 C19.5178,20.2766 20.1288,19.6656 20.8818,19.6656 C21.6348,19.6656 22.2458,20.2766 22.2458,21.0296 Z"/><path id="Stroke-13" d="M11.3354,10.1205 C11.3354,10.8735 10.7244,11.4845 9.9714,11.4845 C9.2184,11.4845 8.6074,10.8735 8.6074,10.1205 C8.6074,9.3675 9.2184,8.7565 9.9714,8.7565 C10.7244,8.7565 11.3354,9.3675 11.3354,10.1205 Z"/></g></g></g></g></g></g></svg>