<svg xmlns="http://www.w3.org/2000/svg" xmlns:xlink="http://www.w3.org/1999/xlink" id="Layer_1" x="0" y="0" version="1.1" viewBox="0 0 100 100" style="enable-background:new 0 0 100 100" xml:space="preserve"><style type="text/css">.st0{fill:#5b9500}.st1{fill:#12935d}.st2{fill:#6bbd8b}.st3{fill:#049fa4}.st4{fill:#3bb5f0}.st5{fill:#78c8ff}.st6{fill:#3eb8ff}.st7{fill:#184223}.st8{fill:#022906}.st9{fill:#076e5e}.st10{fill:#0a413c}.st11{fill:#c2d400}.st12{fill:#8b9504}.st13{fill:#0096e5}.st14{fill:#008eda}.st15{fill:#136050}.st16{fill:#7bbc00}.st17{fill:#95bb00}.st18{fill:#3a9b92}.st19{fill:#00867e}</style><g><polygon points="75 75 100 100 100 75" class="st0"/><rect width="25" height="25" x="75" y=".2" class="st1"/><polygon points="75 .2 100 .2 100 25" class="st2"/><rect width="25" height="25" x="50" y="0" class="st3"/><polygon points="50 25 50 .2 75 .2" class="st4"/><rect width="25" height="25" x="25" y="0" class="st5"/><polygon points="50 25 25 25 25 .2" class="st6"/><rect width="25" height="25" x="74.8" y="25" class="st7"/><polygon points="100 25 100 50 75 50" class="st8"/><rect width="25" height="25" x="49.8" y="25" class="st9"/><polygon points="75 50 50 50 50 25" class="st10"/><rect width="25" height="25" x="75" y="50" class="st11"/><polygon points="75 50 100 50 100 75" class="st12"/><g><polygon points="25 25 25 25 25 .2 12.6 12.6" class="st13"/><polygon points="25 .2 0 .2 12.6 12.6" class="st14"/><polygon points="75 50 50 50 62.4 62.4" class="st15"/><polygon points="75 75 75 50 62.4 62.4" class="st16"/><polygon points="100 75 75 75 87.4 87.4" class="st17"/><polygon points="37.4 37.4 50 25 25 25 25 25" class="st18"/><polygon points="50 49.8 50 25 37.4 37.4" class="st19"/></g></g></svg>